<svg xmlns="http://www.w3.org/2000/svg" width="24.563" height="43.531" viewBox="0 0 24.563 43.531">
  <defs>
    <style>
      .cls-1 {
        fill: #fff;
        fill-rule: evenodd;
      }
    </style>
  </defs>
  <path id="Help_Icon_2.svg" class="cls-1" d="M164.778,95.875v-1.77a10.081,10.081,0,0,1,.8-4.185,11.468,11.468,0,0,1,2.07-3.12q1.275-1.365,2.685-2.655A35.207,35.207,0,0,0,173,81.49a12.193,12.193,0,0,0,2.07-3.195,10.392,10.392,0,0,0,.81-4.29,11.28,11.28,0,0,0-1.38-5.535,10.083,10.083,0,0,0-4.065-3.99A13.373,13.373,0,0,0,163.878,63a13.616,13.616,0,0,0-6.69,1.56,11.072,11.072,0,0,0-4.35,4.23,11.911,11.911,0,0,0-1.53,6.03h3.15a8.542,8.542,0,0,1,2.475-6.255,9.325,9.325,0,0,1,6.945-2.5q4.26,0,6.5,2.31a7.807,7.807,0,0,1,2.235,5.64,7.7,7.7,0,0,1-1.5,4.89,29.608,29.608,0,0,1-3.45,3.69q-1.5,1.38-2.925,2.91a12.854,12.854,0,0,0-2.34,3.6,12.27,12.27,0,0,0-.915,4.98v1.8h3.3Zm0.15,9.9a2.468,2.468,0,0,0,.72-1.77,2.614,2.614,0,0,0-.72-1.83,2.519,2.519,0,0,0-3.645,0,2.586,2.586,0,0,0-.735,1.83A2.567,2.567,0,0,0,164.928,105.775Z" transform="translate(-151.312 -63)"/>
</svg>
