<?xml version="1.0" encoding="utf-8"?>
<!-- Generator: Adobe Illustrator 24.0.0, SVG Export Plug-In . SVG Version: 6.00 Build 0)  -->
<svg version="1.1" id="Ebene_1" xmlns="http://www.w3.org/2000/svg" xmlns:xlink="http://www.w3.org/1999/xlink" x="0px" y="0px"
	 viewBox="0 0 20 20" style="enable-background:new 0 0 20 20;" xml:space="preserve">
<style type="text/css">
	.st0{fill:#FFFFFF;}
</style>
<g>
	<path class="st0" d="M10,0C4.5,0,0,4.5,0,10s4.5,10,10,10s10-4.5,10-10S15.5,0,10,0z M10,18.8c-4.8,0-8.8-3.9-8.8-8.8
		S5.2,1.2,10,1.2s8.8,3.9,8.8,8.8S14.8,18.8,10,18.8z"/>
	<polygon class="st0" points="14.2,7.1 12.9,5.8 10,8.6 7.2,5.8 5.8,7.2 8.6,10 5.8,12.9 7.1,14.2 10,11.4 12.8,14.2 14.2,12.8 
		11.4,10 	"/>
</g>
</svg>
