<?xml version="1.0" encoding="utf-8"?>
<!-- Generator: Adobe Illustrator 22.0.1, SVG Export Plug-In . SVG Version: 6.00 Build 0)  -->
<svg version="1.1" id="Layer_1" xmlns="http://www.w3.org/2000/svg" xmlns:xlink="http://www.w3.org/1999/xlink" x="0px" y="0px"
	 viewBox="0 0 15 15" style="enable-background:new 0 0 15 15;" xml:space="preserve">
<style type="text/css">
	.st0{fill:#FFFFFF;}
</style>
<g>
	<path class="st0" d="M14,5.8l-1.2-1.2c-0.1-0.1-0.3-0.3-0.6-0.3c-0.2,0-0.4,0.1-0.6,0.3l-5.7,5.7L3.3,7.7C3.2,7.5,3,7.5,2.7,7.5
		c-0.2,0-0.4,0.1-0.6,0.3L1,8.9C0.8,9.1,0.7,9.3,0.7,9.5S0.8,9.9,1,10.1l3.2,3.2l1.2,1.2c0.1,0.1,0.3,0.3,0.6,0.3
		c0.2,0,0.4-0.1,0.6-0.3l1.2-1.2L14,7c0.1-0.2,0.3-0.4,0.3-0.7C14.3,6.1,14.2,5.9,14,5.8z"/>
</g>
</svg>
