<?xml version="1.0" encoding="utf-8"?>
<!-- Generator: Adobe Illustrator 22.0.1, SVG Export Plug-In . SVG Version: 6.00 Build 0)  -->
<svg version="1.1" id="Layer_1" xmlns="http://www.w3.org/2000/svg" xmlns:xlink="http://www.w3.org/1999/xlink" x="0px" y="0px"
	 viewBox="0 0 45.2 45.2" style="enable-background:new 0 0 45.2 45.2;" xml:space="preserve">
<style type="text/css">
	.st0{fill:#FFFFFF;}
</style>
<g>
	<path class="st0" d="M41.3,18h-3.9c-0.6,0-1.1-0.3-1.4-0.9c-0.2-0.6-0.1-1.2,0.3-1.6l2.8-2.8c0.4-0.4,0.6-0.9,0.6-1.5
		c0-0.6-0.2-1.1-0.6-1.5l-3.5-3.5c-0.8-0.8-2.2-0.8-3,0l-2.8,2.8c-0.4,0.4-1.1,0.6-1.6,0.3c-0.6-0.2-0.9-0.8-0.9-1.4V3.9
		c0-1.2-1-2.1-2.1-2.1h-5c-1.2,0-2.1,1-2.1,2.1v3.9c0,0.6-0.3,1.1-0.9,1.4c-0.6,0.2-1.2,0.1-1.6-0.3l-2.8-2.8c-0.8-0.8-2.2-0.8-3,0
		L6.1,9.6c-0.4,0.4-0.6,0.9-0.6,1.5c0,0.6,0.2,1.1,0.6,1.5l2.8,2.8c0.4,0.4,0.6,1.1,0.3,1.6C9,17.6,8.5,18,7.8,18H3.9
		c-1.2,0-2.1,1-2.1,2.1v5c0,1.2,1,2.1,2.1,2.1h3.9c0.6,0,1.1,0.3,1.4,0.9c0.2,0.6,0.1,1.2-0.3,1.6l-2.8,2.8
		c-0.4,0.4-0.6,0.9-0.6,1.5c0,0.6,0.2,1.1,0.6,1.5l3.5,3.5c0.8,0.8,2.2,0.8,3,0l2.8-2.8c0.4-0.4,1.1-0.6,1.6-0.3
		c0.6,0.2,0.9,0.8,0.9,1.4v3.9c0,1.2,1,2.1,2.1,2.1h5c1.2,0,2.1-1,2.1-2.1v-3.9c0-0.6,0.3-1.1,0.9-1.4c0.6-0.2,1.2-0.1,1.6,0.3
		l2.8,2.8c0.8,0.8,2.2,0.8,3,0l3.5-3.5c0.4-0.4,0.6-0.9,0.6-1.5c0-0.6-0.2-1.1-0.6-1.5l-2.8-2.8c-0.4-0.4-0.6-1.1-0.3-1.6
		c0.2-0.6,0.8-0.9,1.4-0.9h3.9c1.2,0,2.1-1,2.1-2.1v-5C43.5,19,42.5,18,41.3,18z M41.9,25.1c0,0.3-0.3,0.6-0.6,0.6h-3.9
		c-1.3,0-2.3,0.7-2.8,1.9c-0.5,1.2-0.2,2.4,0.7,3.3l2.8,2.8c0.2,0.2,0.2,0.6,0,0.9L34.5,38c-0.2,0.2-0.6,0.2-0.9,0l-2.8-2.8
		c-0.9-0.9-2.2-1.1-3.3-0.7c-1.2,0.5-1.9,1.6-1.9,2.8v3.9c0,0.3-0.3,0.6-0.6,0.6h-5c-0.3,0-0.6-0.3-0.6-0.6v-3.9
		c0-1.3-0.7-2.3-1.9-2.8c-0.4-0.2-0.8-0.2-1.2-0.2c-0.8,0-1.5,0.3-2.1,0.9L11.6,38c-0.2,0.2-0.6,0.2-0.9,0l-3.5-3.5
		c-0.2-0.2-0.2-0.6,0-0.9l2.8-2.8c0.9-0.9,1.1-2.2,0.7-3.3c-0.5-1.2-1.6-1.9-2.8-1.9H3.9c-0.3,0-0.6-0.3-0.6-0.6v-5
		c0-0.3,0.3-0.6,0.6-0.6h3.9c1.3,0,2.3-0.7,2.8-1.9c0.5-1.2,0.2-2.4-0.7-3.3l-2.8-2.8C7,11.3,7,11,7.2,10.7l3.5-3.5
		C11,7,11.3,7,11.6,7.2l2.8,2.8c0.9,0.9,2.2,1.1,3.3,0.7c1.2-0.5,1.9-1.6,1.9-2.8V3.9c0-0.3,0.3-0.6,0.6-0.6h5
		c0.3,0,0.6,0.3,0.6,0.6v3.9c0,1.3,0.7,2.3,1.9,2.8c1.2,0.5,2.4,0.2,3.3-0.7l2.8-2.8c0.2-0.2,0.6-0.2,0.9,0l3.5,3.5
		c0.2,0.2,0.2,0.6,0,0.9l-2.8,2.8c-0.9,0.9-1.1,2.2-0.7,3.3c0.5,1.2,1.6,1.9,2.8,1.9h3.9c0.3,0,0.6,0.3,0.6,0.6V25.1z"/>
	<path class="st0" d="M22.6,15.7c-3.8,0-6.9,3.1-6.9,6.9s3.1,6.9,6.9,6.9s6.9-3.1,6.9-6.9S26.5,15.7,22.6,15.7z M22.6,28
		c-3,0-5.4-2.4-5.4-5.4s2.4-5.4,5.4-5.4s5.4,2.4,5.4,5.4S25.6,28,22.6,28z"/>
</g>
</svg>
