<?xml version="1.0" encoding="utf-8"?>
<!-- Generator: Adobe Illustrator 24.0.0, SVG Export Plug-In . SVG Version: 6.00 Build 0)  -->
<svg version="1.1" id="Ebene_1" xmlns="http://www.w3.org/2000/svg" xmlns:xlink="http://www.w3.org/1999/xlink" x="0px" y="0px"
	 viewBox="0 0 60 60" style="enable-background:new 0 0 60 60;" xml:space="preserve">
<style type="text/css">
	.st0{opacity:0.8;}
	.st1{opacity:0.7;fill:#FFFFFF;enable-background:new    ;}
</style>
<path class="st0" d="M30,53.5C17,53.5,6.5,43,6.5,30.1S17,6.6,30,6.6s23.5,10.5,23.5,23.5S42.8,53.5,30,53.5z"/>
<path class="st1" d="M41.2,28.9c0.1,0.1,0.3,0.4,0.3,0.7c0,0.3-0.1,0.5-0.3,0.7l-9.9,10c-0.1,0.1-0.4,0.3-0.7,0.3
	c-0.2,0-0.5-0.1-0.7-0.3c-0.4-0.4-0.4-1,0-1.3l8.3-8.4H19.4c-0.5,0-1-0.4-1-1c0-0.5,0.4-1,1-1h18.8l-8.3-8.4c-0.4-0.4-0.4-1,0-1.3
	c0.4-0.4,1-0.4,1.3,0L41.2,28.9z"/>
</svg>
