<?xml version="1.0" encoding="utf-8"?>
<!-- Generator: Adobe Illustrator 24.0.0, SVG Export Plug-In . SVG Version: 6.00 Build 0)  -->
<svg version="1.1" id="Ebene_1" xmlns="http://www.w3.org/2000/svg" xmlns:xlink="http://www.w3.org/1999/xlink" x="0px" y="0px"
	 viewBox="0 0 60 60" style="enable-background:new 0 0 60 60;" xml:space="preserve">
<style type="text/css">
	.st0{opacity:0.8;}
	.st1{opacity:0.7;fill:#FFFFFF;enable-background:new    ;}
</style>
<path class="st0" d="M6.6,30C6.6,17,17,6.5,29.9,6.5S53.5,17,53.5,30S43,53.5,29.9,53.5S6.6,42.8,6.6,30z"/>
<path class="st1" d="M29.7,18.7c0.1-0.1,0.4-0.3,0.7-0.3c0.3,0,0.5,0.1,0.7,0.3l10,9.9c0.1,0.1,0.3,0.4,0.3,0.7
	c0,0.2-0.1,0.5-0.3,0.7c-0.4,0.4-1,0.4-1.3,0l-8.4-8.3v18.8c0,0.5-0.4,1-1,1c-0.5,0-1-0.4-1-1V21.7L21,30c-0.4,0.4-1,0.4-1.3,0
	c-0.4-0.4-0.4-1,0-1.3L29.7,18.7z"/>
</svg>
