<svg id="Layer_1" data-name="Layer 1" xmlns="http://www.w3.org/2000/svg" width="32" height="32" viewBox="0 0 118.97 118.97"><defs><style>.cls-1{fill:#fff;}</style></defs><title>icon_porsche</title><path class="cls-1" d="M89.72,48.2,74.78,51.88V45.57a3,3,0,0,0-3-3H37a3,3,0,0,0-3,3V73.4a3,3,0,0,0,3,3h34.7a3.05,3.05,0,0,0,3-3V67.09l14.64,3.65.3,0A3.26,3.26,0,0,0,93,67.52V51.45A3.25,3.25,0,0,0,89.72,48.2ZM72.28,73.4a.55.55,0,0,1-.54.54H37a.54.54,0,0,1-.54-.54V45.57A.54.54,0,0,1,37,45h34.7a.55.55,0,0,1,.54.54Zm18.19-5.88a.75.75,0,0,1-.63.74L74.78,64.52V54.45L89.84,50.7a.77.77,0,0,1,.63.75Z"/></svg>