<?xml version="1.0" encoding="UTF-8" standalone="no"?>
<svg
   xmlns:dc="http://purl.org/dc/elements/1.1/"
   xmlns:cc="http://creativecommons.org/ns#"
   xmlns:rdf="http://www.w3.org/1999/02/22-rdf-syntax-ns#"
   xmlns:svg="http://www.w3.org/2000/svg"
   xmlns="http://www.w3.org/2000/svg"
   xmlns:sodipodi="http://sodipodi.sourceforge.net/DTD/sodipodi-0.dtd"
   xmlns:inkscape="http://www.inkscape.org/namespaces/inkscape"
   version="1.1"
   id="Layer_1"
   x="0px"
   y="0px"
   viewBox="0 0 119 119"
   style="enable-background:new 0 0 119 119;"
   xml:space="preserve"
   sodipodi:docname="icon_int.svg"
   inkscape:version="1.0.2 (e86c870879, 2021-01-15, custom)"><metadata
   id="metadata49"><rdf:RDF><cc:Work
       rdf:about=""><dc:format>image/svg+xml</dc:format><dc:type
         rdf:resource="http://purl.org/dc/dcmitype/StillImage" /></cc:Work></rdf:RDF></metadata><defs
   id="defs47" /><sodipodi:namedview
   pagecolor="#ffffff"
   bordercolor="#666666"
   borderopacity="1"
   objecttolerance="10"
   gridtolerance="10"
   guidetolerance="10"
   inkscape:pageopacity="0"
   inkscape:pageshadow="2"
   inkscape:window-width="1920"
   inkscape:window-height="1017"
   id="namedview45"
   showgrid="false"
   inkscape:zoom="5.0507627"
   inkscape:cx="42.50896"
   inkscape:cy="70.518081"
   inkscape:window-x="-8"
   inkscape:window-y="-8"
   inkscape:window-maximized="1"
   inkscape:current-layer="Layer_1" />
<style
   type="text/css"
   id="style2">
	.st0{fill:#FFFFFF;}
</style>
<title
   id="title4">icon_porsche</title>
<g
   id="g10"
   style="fill:#ffffff"
   transform="matrix(2.3858921,0,0,2.3858921,-84.005777,-82.124892)">
	<g
   id="g8"
   style="fill:#ffffff">
		<path
   class="st0"
   d="m 60,58.5 c -2.2,0 -3.9,1.7 -3.9,3.9 0,2.2 1.7,3.9 3.9,3.9 2.2,0 3.9,-1.7 3.9,-3.9 C 64,60.3 62.2,58.5 60,58.5 Z m 0,6 c -1.2,0 -2,-0.9 -2,-2 0,-1.2 0.9,-2 2,-2 1.2,0 2,0.9 2,2 0.1,1.1 -0.8,2 -2,2 z"
   id="path6"
   style="fill:#ffffff" />
	</g>
</g>
<g
   id="g20"
   style="fill:#ffffff"
   transform="matrix(2.3858921,0,0,2.3858921,-84.005777,-82.124892)">
	<g
   id="g18"
   style="fill:#ffffff">
		<g
   id="g16"
   style="fill:#ffffff">
			<path
   class="st0"
   d="m 76.9,42.6 c -4.5,-4.5 -10.5,-7 -16.8,-7 -6.3,0 -12.4,2.5 -16.8,7 -4.5,4.5 -7,10.5 -7,16.8 0,6.3 2.5,12.4 7,16.8 4.5,4.5 10.5,7 16.8,7 6.3,0 12.4,-2.5 16.8,-7 4.5,-4.5 7,-10.5 7,-16.8 0,-6.3 -2.5,-12.3 -7,-16.8 z m -23.1,38 C 49,79.1 44.8,76 42,72 h 4.8 c 3.8,0 7,3.2 7,7 z M 66.3,80.5 V 79 c 0,-3.8 3.2,-7 7,-7 h 4.8 c -2.8,4 -7,7.1 -11.8,8.5 z m 13,-10.4 h -6 c -4.9,0 -8.9,4 -8.9,8.9 v 2 c -1.4,0.3 -2.9,0.4 -4.3,0.4 -1.5,0 -3,-0.1 -4.3,-0.4 v -2 c 0,-4.9 -4,-8.9 -8.9,-8.9 h -6 c -1.2,-2.1 -2,-4.4 -2.5,-6.9 l 15.8,-3.1 c 0.3,-0.1 0.5,-0.2 0.7,-0.4 1.1,-1.9 3,-3.1 5.2,-3.1 2.2,0 4.2,1.2 5.2,3.1 0.1,0.2 0.4,0.4 0.7,0.4 l 15.9,3 c -0.6,2.6 -1.5,4.9 -2.6,7 z M 66.7,58.3 c -1.4,-2.2 -4,-3.7 -6.6,-3.7 -2.6,0 -5.2,1.4 -6.6,3.7 l -15.2,3 c -0.1,-0.7 -0.1,-1.2 -0.1,-1.9 0,-12.1 9.8,-22 22,-22 12.2,0 22,9.8 22,22 0,0.7 0,1.2 -0.1,1.9 z"
   id="path12"
   style="fill:#ffffff" />
			<path
   class="st0"
   d="M 60,83.6 C 53.6,83.6 47.6,81.1 43,76.5 38.4,72 35.9,66 35.9,59.5 c 0,-6.4 2.5,-12.4 7.1,-17 4.5,-4.6 10.5,-7.1 17,-7.1 6.4,0 12.4,2.5 17,7.1 4.6,4.6 7.1,10.6 7.1,17 0,6.4 -2.5,12.4 -7.1,17 -4.4,4.6 -10.5,7.1 -17,7.1 z m 0,-47.7 c -6.3,0 -12.3,2.5 -16.7,6.9 -4.5,4.5 -6.9,10.4 -6.9,16.7 0,6.3 2.5,12.3 6.9,16.7 4.5,4.5 10.4,6.9 16.7,6.9 6.3,0 12.3,-2.5 16.7,-6.9 4.5,-4.5 6.9,-10.4 6.9,-16.7 0,-6.3 -2.5,-12.2 -6.9,-16.7 C 72.3,38.3 66.3,35.9 60,35.9 Z m 0,45.8 c -1.5,0 -3,-0.1 -4.4,-0.4 H 55.4 V 79 c 0,-4.8 -3.9,-8.6 -8.6,-8.6 h -6.1 l -0.1,-0.1 c -1.2,-2.2 -2.1,-4.6 -2.5,-6.9 v -0.2 h 0.2 l 15.8,-3.1 c 0.2,-0.1 0.4,-0.2 0.5,-0.3 1.1,-2 3.2,-3.2 5.4,-3.2 2.3,0 4.4,1.2 5.4,3.2 0.1,0.1 0.2,0.3 0.4,0.3 L 82,63 v 0.2 c -0.4,2.4 -1.2,4.8 -2.5,7 l -0.1,0.1 h -6.1 c -4.8,0 -8.6,3.9 -8.6,8.6 v 2.2 h -0.2 c -1.5,0.5 -3,0.6 -4.5,0.6 z m -4,-0.9 c 2.5,0.5 5.4,0.5 8.2,0 V 79 c 0,-5 4.1,-9.1 9.1,-9.1 h 5.9 c 1.1,-2.1 1.9,-4.3 2.3,-6.5 l -15.7,-3 c 0,0 0,0 0,0 -0.3,0 -0.6,-0.2 -0.8,-0.5 -1,-1.9 -2.9,-3 -5,-3 -2,0 -3.9,1.1 -5,3 -0.2,0.3 -0.5,0.5 -0.8,0.6 l -15.5,3.1 c 0.4,2.2 1.2,4.4 2.3,6.4 h 5.9 c 5,0 9.1,4.1 9.1,9.1 z m -1.9,0.1 -0.3,-0.1 C 49,79.4 44.7,76.3 41.8,72.1 l -0.3,-0.4 h 5.3 c 3.9,0 7.3,3.3 7.3,7.3 z M 42.5,72.2 c 2.8,3.8 6.7,6.6 11.1,8 V 79 c 0,-3.7 -3.1,-6.8 -6.8,-6.8 z M 66,80.8 V 79 c 0,-3.9 3.3,-7.3 7.3,-7.3 h 5.3 l -0.3,0.4 c -2.9,4.2 -7.2,7.3 -12,8.6 z m 7.3,-8.6 c -3.7,0 -6.8,3.1 -6.8,6.8 v 1.2 c 4.4,-1.3 8.3,-4.1 11.1,-7.9 H 73.3 Z M 82.2,61.7 66.6,58.6 66.5,58.5 c -1.4,-2.2 -3.9,-3.6 -6.4,-3.6 -2.6,0 -5.1,1.4 -6.4,3.6 l -0.1,0.1 H 53.5 L 38,61.7 v -0.3 c -0.1,-0.7 -0.1,-1.2 -0.1,-1.9 0,-12.3 10,-22.2 22.2,-22.2 12.2,0 22.2,10 22.2,22.2 0,0.7 0,1.2 -0.1,1.9 z m -15.3,-3.6 14.9,3 c 0,-0.5 0,-1 0,-1.6 0,-12 -9.7,-21.7 -21.7,-21.7 -12,0 -21.7,9.7 -21.7,21.7 0,0.6 0,1.1 0,1.6 l 14.9,-3 c 1.5,-2.3 4.1,-3.7 6.8,-3.7 2.6,0 5.2,1.4 6.8,3.7 z"
   id="path14"
   style="fill:#ffffff" />
		</g>
	</g>
</g>
<g
   id="g26"
   style="fill:#ffffff"
   transform="matrix(2.3858921,0,0,2.3858921,-84.005777,-82.124892)">
	<g
   id="g24"
   style="fill:#ffffff">
		<path
   class="st0"
   d="m 42.5,55.9 c -0.5,-0.1 -0.9,0.3 -1,0.8 v 0.1 c -0.1,0.5 0.3,0.9 0.8,1 0.1,0 0.1,0 0.1,0 0.4,0 0.8,-0.3 0.9,-0.8 V 56.9 C 43.4,56.4 43,56 42.5,55.9 Z"
   id="path22"
   style="fill:#ffffff" />
	</g>
</g>
<g
   id="g36"
   style="fill:#ffffff"
   transform="matrix(2.3858921,0,0,2.3858921,-84.005777,-82.124892)">
	<g
   id="g34"
   style="fill:#ffffff">
		<g
   id="g32"
   style="fill:#ffffff">
			<path
   class="st0"
   d="m 77.9,53.4 c -1.2,-3.7 -3.5,-7 -6.6,-9.4 -3.2,-2.4 -7.1,-3.7 -11.2,-3.7 -8,0 -15.1,5.1 -17.7,12.7 -0.1,0.5 0.1,1 0.6,1.1 0.5,0.1 1,-0.1 1.1,-0.6 2.3,-6.9 8.8,-11.5 16,-11.5 7.5,0 13.9,4.8 16.1,11.9 0.1,0.4 0.5,0.6 0.8,0.6 0.1,0 0.2,0 0.3,-0.1 0.5,0 0.7,-0.5 0.6,-1 z"
   id="path28"
   style="fill:#ffffff" />
			<path
   class="st0"
   d="M 77,54.8 C 76.5,54.8 76.1,54.5 75.9,54 73.7,47 67.3,42.3 60,42.3 c -7.2,0 -13.5,4.6 -15.8,11.4 -0.1,0.3 -0.3,0.5 -0.5,0.6 -0.3,0.1 -0.6,0.1 -0.8,0.1 -0.3,-0.1 -0.5,-0.3 -0.7,-0.5 -0.1,-0.3 -0.1,-0.6 -0.1,-0.8 2.6,-7.7 9.8,-12.9 17.9,-12.9 4.2,0 8.1,1.3 11.3,3.7 3.1,2.4 5.5,5.8 6.7,9.5 v 0 c 0.2,0.6 -0.1,1.2 -0.7,1.4 0,0 -0.2,0 -0.3,0 z M 60.1,41.9 c 7.6,0 14.1,4.8 16.4,12 0.1,0.3 0.4,0.5 0.6,0.5 0,0 0.1,0 0.1,0 h 0.1 c 0.2,0 0.3,-0.1 0.4,-0.3 0.1,-0.2 0.1,-0.3 0,-0.5 -1.2,-3.7 -3.5,-6.9 -6.5,-9.3 -3.2,-2.4 -7,-3.6 -11,-3.6 -7.9,0 -14.9,5 -17.4,12.5 0,0.2 0,0.4 0,0.5 0.1,0.1 0.2,0.2 0.4,0.3 0.3,0.1 0.7,0 0.8,-0.4 2.1,-7 8.6,-11.7 16.1,-11.7 z"
   id="path30"
   style="fill:#ffffff" />
		</g>
	</g>
</g>
<g
   id="g42"
   style="fill:#ffffff"
   transform="matrix(2.3858921,0,0,2.3858921,-84.005777,-82.124892)">
	<g
   id="g40"
   style="fill:#ffffff">
		<path
   class="st0"
   d="m 78.6,57.1 c -0.1,-0.5 -0.5,-0.8 -1,-0.8 -0.5,0.1 -0.8,0.5 -0.8,1 v 0 c 0.1,0.5 0.4,0.8 0.9,0.8 h 0.1 c 0.5,0 0.9,-0.5 0.8,-1 z"
   id="path38"
   style="fill:#ffffff" />
	</g>
</g>
</svg>
