<svg xmlns="http://www.w3.org/2000/svg" width="30" height="30"><path d="M 15 0.833 C 22.824 0.833 29.167 7.176 29.167 15 C 29.167 22.824 22.824 29.167 15 29.167 Z" fill="transparent" stroke-width="0.83" stroke="hsl(0, 0%, 100%)"></path><path d="M 15 0.833 L 28.333 10" fill="transparent" stroke-width="0.83" stroke="hsl(0, 0%, 100%)"></path><path d="M 15 3.333 L 29.167 12.917" fill="transparent" stroke-width="0.83" stroke="hsl(0, 0%, 100%)"></path><path d="M 15 5.833 L 29.167 15" fill="transparent" stroke-width="0.83" stroke="hsl(0, 0%, 100%)"></path><path d="M 15 8.333 L 29.167 17.5" fill="transparent" stroke-width="0.83" stroke="hsl(0, 0%, 100%)"></path><path d="M 15 10.833 L 28.333 19.583" fill="transparent" stroke-width="0.83" stroke="hsl(0, 0%, 100%)"></path><path d="M 15 13.333 L 27.5 21.667" fill="transparent" stroke-width="0.83" stroke="hsl(0, 0%, 100%)"></path><path d="M 15 15.833 L 26.25 23.333" fill="transparent" stroke-width="0.83" stroke="hsl(0, 0%, 100%)"></path><path d="M 15 18.333 L 25 25" fill="transparent" stroke-width="0.83" stroke="hsl(0, 0%, 100%)"></path><path d="M 15 20.833 L 23.75 26.25" fill="transparent" stroke-width="0.83" stroke="hsl(0, 0%, 100%)"></path><path d="M 15 23.333 L 22.083 27.5" fill="transparent" stroke-width="0.83" stroke="hsl(0, 0%, 100%)"></path><path d="M 15 25.833 L 19.583 28.333" fill="transparent" stroke-width="0.83" stroke="hsl(0, 0%, 100%)"></path><path d="M 15 0.833 C 22.824 0.833 29.167 7.176 29.167 15 C 29.167 22.824 22.824 29.167 15 29.167 C 7.176 29.167 0.833 22.824 0.833 15 C 0.833 7.176 7.176 0.833 15 0.833 Z" fill="transparent" stroke-width="0.83" stroke="hsl(0, 0%, 100%)"></path></svg>